<?xml version="1.0" encoding="UTF-8" standalone="no"?>
<!-- Created with Inkscape (http://www.inkscape.org/) -->

<svg
   xmlns:dc="http://purl.org/dc/elements/1.1/"
   xmlns:cc="http://creativecommons.org/ns#"
   xmlns:rdf="http://www.w3.org/1999/02/22-rdf-syntax-ns#"
   xmlns:svg="http://www.w3.org/2000/svg"
   xmlns="http://www.w3.org/2000/svg"
   xmlns:xlink="http://www.w3.org/1999/xlink"
   xmlns:sodipodi="http://sodipodi.sourceforge.net/DTD/sodipodi-0.dtd"
   xmlns:inkscape="http://www.inkscape.org/namespaces/inkscape"
   width="300"
   height="300"
   viewBox="0 0 300 300"
   id="svg2"
   version="1.1"
   inkscape:version="0.91 r13725"
   sodipodi:docname="peer-calls-connecting.svg">
  <defs
     id="defs4">
    <linearGradient
       inkscape:collect="always"
       id="linearGradient4712">
      <stop
         style="stop-color:#ffffff;stop-opacity:1;"
         offset="0"
         id="stop4714" />
      <stop
         style="stop-color:#b7ffbc;stop-opacity:1"
         offset="1"
         id="stop4716" />
    </linearGradient>
    <linearGradient
       inkscape:collect="always"
       id="linearGradient4310">
      <stop
         style="stop-color:#000000;stop-opacity:0.18079096"
         offset="0"
         id="stop4312" />
      <stop
         style="stop-color:#000000;stop-opacity:0"
         offset="1"
         id="stop4314" />
    </linearGradient>
    <linearGradient
       inkscape:collect="always"
       xlink:href="#linearGradient4310"
       id="linearGradient4318"
       x1="994.10724"
       y1="92.684189"
       x2="1127.0452"
       y2="92.684189"
       gradientUnits="userSpaceOnUse"
       gradientTransform="matrix(0.22711819,0.19721815,-0.20542649,0.21972172,-68.004021,674.76292)" />
    <linearGradient
       inkscape:collect="always"
       xlink:href="#linearGradient4712"
       id="linearGradient4718"
       x1="157.44328"
       y1="1018.6794"
       x2="176.09467"
       y2="1019.6896"
       gradientUnits="userSpaceOnUse" />
  </defs>
  <sodipodi:namedview
     id="base"
     pagecolor="#ffffff"
     bordercolor="#666666"
     borderopacity="1.0"
     inkscape:pageopacity="0.0"
     inkscape:pageshadow="2"
     inkscape:zoom="1.979899"
     inkscape:cx="113.52384"
     inkscape:cy="119.77067"
     inkscape:document-units="px"
     inkscape:current-layer="layer1"
     showgrid="false"
     showguides="true"
     inkscape:guide-bbox="true"
     inkscape:window-width="1680"
     inkscape:window-height="948"
     inkscape:window-x="0"
     inkscape:window-y="1"
     inkscape:window-maximized="1"
     units="px">
    <sodipodi:guide
       position="369.21076,710.13725"
       orientation="0,1"
       id="guide4220" />
  </sodipodi:namedview>
  <metadata
     id="metadata7">
    <rdf:RDF>
      <cc:Work
         rdf:about="">
        <dc:format>image/svg+xml</dc:format>
        <dc:type
           rdf:resource="http://purl.org/dc/dcmitype/StillImage" />
        <dc:title />
      </cc:Work>
    </rdf:RDF>
  </metadata>
  <g
     inkscape:label="Layer 1"
     inkscape:groupmode="layer"
     id="layer1"
     transform="translate(0,-752.36216)">
    <path
       style="fill:url(#linearGradient4318);fill-opacity:1;stroke:none;stroke-width:2.5;stroke-linecap:round;stroke-linejoin:round;stroke-miterlimit:4;stroke-dasharray:none;stroke-opacity:1"
       d="m 165.22927,862.84679 30.19263,26.21778 -52.98649,56.67372 -18.16083,-28.58119 z"
       id="rect4307"
       inkscape:connector-curvature="0"
       sodipodi:nodetypes="ccccc" />
    <path
       style="fill:#00d500;fill-opacity:1"
       d="m 153.80981,861.5951 c -10.00924,0.48122 -14.41934,11.63852 -19.84315,18.46246 -19.26407,29.99656 -15.1943,72.09474 8.80485,98.3391 5.39397,8.46644 18.14985,8.16429 25.38738,2.56788 5.872,-8.38656 -1.58786,-18.55945 -6.56183,-25.45189 -4.38195,-6.60798 -15.25524,-1.7664 -18.5413,-9.69584 -7.54777,-14.8394 -7.43364,-34.00845 1.95876,-47.93936 4.95777,-4.52875 13.76,-1.15648 17.34455,-7.93295 4.66674,-6.78521 11.86997,-17.06315 5.42958,-24.87859 -3.78726,-3.30711 -9.21468,-3.44712 -13.97884,-3.47081 z"
       id="path4224"
       inkscape:connector-curvature="0"
       inkscape:export-xdpi="31.709999"
       inkscape:export-ydpi="31.709999" />
    <path
       inkscape:connector-curvature="0"
       id="path4218"
       d="m 57.772284,1039.7236 c -0.183758,-0.1838 -0.334105,-6.5663 -0.334105,-14.1834 0,-15.6718 0.05988,-15.9862 3.290782,-17.279 2.835615,-1.1346 7.355977,-1.0002 9.924574,0.2951 2.957736,1.4915 3.392951,3.0498 3.192235,11.4299 -0.171931,7.1782 -0.419854,7.9782 -2.935789,9.473 -1.074599,0.6385 -2.434248,0.8675 -5.223432,0.8797 -3.712258,0.016 -3.770683,0 -3.770683,-1.1617 0,-1.1285 0.146422,-1.1883 3.459715,-1.414 5.062055,-0.3448 5.259993,-0.6825 5.259993,-8.9734 0,-6.4739 -0.0076,-6.518 -1.241906,-7.4891 -1.692405,-1.3312 -6.173912,-1.3754 -7.779087,-0.077 -2.861014,3.2759 -1.274222,10.3771 -1.348389,14.7291 -0.229611,13.4736 -0.260386,13.8325 -1.197736,13.9666 -0.529138,0.076 -1.11241,-0.012 -1.296172,-0.1963 z m 26.514048,-9.7215 c -2.972186,-1.4989 -3.390623,-3.0275 -3.193273,-11.6656 0.176472,-7.7247 0.423732,-8.4293 3.477884,-9.9111 2.328632,-1.1296 8.049262,-1.2845 10.009419,-0.2709 2.550347,1.3188 3.156997,2.4677 3.156997,5.9787 0,4.4313 -1.023446,5.4922 -5.93527,6.1521 -1.920294,0.258 -4.339846,0.6145 -5.376781,0.792 l -1.885342,0.323 -0.14164,2.4507 c -0.198305,3.431 0.798814,4.3835 4.588645,4.3835 3.794284,0 5.089818,-0.5621 5.570478,-2.4171 0.846694,-3.2674 3.788918,-2.8029 3.176048,0.5016 -0.611819,3.2987 -3.087958,4.7436 -8.129497,4.7436 -2.396328,0 -3.749955,-0.27 -5.317668,-1.0605 z m 7.087996,-12.4359 c 2.295101,-0.3508 3.30078,-1.3977 3.292131,-3.427 -0.01224,-2.8634 -1.339285,-3.8154 -5.318593,-3.8154 -3.829199,0 -5.043568,1.1242 -5.043568,4.669 0,1.4933 0.143705,2.859 0.319353,3.0346 0.299491,0.2995 2.963586,0.1174 6.750677,-0.4612 z m 16.950112,12.4359 c -2.97219,-1.4989 -3.39062,-3.0275 -3.19329,-11.6656 0.17649,-7.7247 0.42375,-8.4293 3.47791,-9.9111 2.32862,-1.1296 8.04926,-1.2845 10.00941,-0.2709 2.55034,1.3188 3.15699,2.4677 3.15699,5.9787 0,4.4313 -1.02344,5.4922 -5.93526,6.1521 -1.9203,0.258 -4.33985,0.6145 -5.37678,0.792 l -1.88535,0.323 -0.14164,2.4507 c -0.1983,3.431 0.79882,4.3835 4.58865,4.3835 3.79429,0 5.08981,-0.5621 5.57048,-2.4171 0.84669,-3.2674 3.78891,-2.8029 3.17604,0.5016 -0.61181,3.2987 -3.08795,4.7436 -8.12949,4.7436 -2.39633,0 -3.74996,-0.27 -5.31767,-1.0605 z m 7.08799,-12.4359 c 2.29511,-0.3508 3.30078,-1.3977 3.29214,-3.427 -0.0122,-2.8634 -1.33929,-3.8154 -5.3186,-3.8154 -3.82919,0 -5.04357,1.1242 -5.04357,4.669 0,1.4933 0.14372,2.859 0.31936,3.0346 0.29949,0.2995 2.96358,0.1174 6.75067,-0.4612 z m 14.42617,12.7507 c -0.15736,-0.41 -0.2861,-4.6588 -0.2861,-9.4418 0,-10.0568 0.31002,-11.334 3.06885,-12.6432 2.65434,-1.2596 6.92614,-0.8534 8.59691,0.8173 1.03333,1.0334 1.25829,1.6929 1.27531,3.7391 0.0188,2.2671 -0.0778,2.4984 -1.10438,2.6436 -1.30107,0.1839 -1.9212,-0.5752 -1.93143,-2.3643 -0.0101,-1.7647 -1.17598,-2.7438 -3.26718,-2.7438 -3.17378,0 -3.33873,0.5181 -3.33873,10.4858 0,4.819 -0.12874,9.0973 -0.2861,9.5073 -0.15735,0.4101 -0.77096,0.7457 -1.36357,0.7457 -0.59263,0 -1.20624,-0.3356 -1.36358,-0.7457 z m 20.64835,0.076 c -2.28577,-0.9952 -3.565,-2.9489 -3.3998,-5.1921 0.1066,-1.4475 0.36002,-1.9486 1.05194,-2.08 1.07616,-0.2044 2.15217,1.088 2.15217,2.585 0,1.6537 1.71282,2.529 4.94902,2.529 3.7238,0 4.94902,-0.8149 4.94902,-3.2919 0,-2.4318 -1.20873,-3.3321 -6.26816,-4.6686 -4.79336,-1.2663 -5.91045,-2.2503 -6.26351,-5.5174 -0.50454,-4.6689 2.2478,-7.2587 7.71562,-7.2601 4.82773,0 7.11783,1.4456 7.84705,4.9575 0.39713,1.9125 -0.7207,3.5167 -1.93277,2.7738 -0.46327,-0.2839 -0.98788,-1.228 -1.1658,-2.098 -0.44285,-2.1652 -1.5243,-2.806 -4.73587,-2.806 -3.30398,0 -4.62326,0.9991 -4.62326,3.5014 0,2.1107 0.89177,2.9302 4.15308,3.8162 7.21796,1.961 8.81364,3.4537 8.43214,7.8877 -0.3336,3.8772 -2.81813,5.5461 -8.21023,5.515 -1.75816,-0.01 -3.85096,-0.3033 -4.65064,-0.6515 z m 25.98248,-0.075 c -3.12524,-1.3416 -3.27716,-1.8468 -3.28886,-10.9371 -0.009,-6.599 0.12919,-8.3603 0.72454,-9.2689 1.67958,-2.5634 8.05264,-3.4656 11.76973,-1.6662 2.15386,1.0427 3.04931,2.4912 3.04931,4.9326 0,1.2243 -0.23848,1.6714 -1.02459,1.9208 -1.19804,0.3803 -2.27475,-0.7774 -2.27475,-2.446 0,-1.583 -1.72209,-2.529 -4.604,-2.529 -2.0353,0 -2.72726,0.2184 -3.6658,1.157 -1.11886,1.1189 -1.15691,1.3753 -1.15691,7.7984 0,6.4231 0.038,6.6796 1.15691,7.7985 2.24647,2.2464 8.2698,1.2471 8.2698,-1.3721 0,-1.6685 1.07671,-2.8263 2.27475,-2.446 0.78611,0.2495 1.02459,0.6966 1.02459,1.9209 0,2.4413 -0.89545,3.8898 -3.04931,4.9325 -2.36778,1.1462 -6.78318,1.2443 -9.20541,0.2046 z m 32.37039,0.1376 c -0.92926,-0.7042 -1.70673,-3.9944 -1.72206,-7.2875 l -0.0115,-2.4745 -1.76751,0.028 c -3.02096,0.048 -6.32299,0.7498 -6.75769,1.4363 -0.22866,0.3611 -0.41899,1.5505 -0.42296,2.6432 -0.009,2.4256 0.76795,2.9593 4.32164,2.9696 2.89734,0.01 3.84488,0.4545 3.60766,1.6989 -0.14097,0.7394 -0.6755,0.9111 -3.2279,1.0362 -6.02257,0.2952 -8.00797,-1.2293 -8.00797,-6.149 0,-4.341 1.34959,-5.4215 7.75578,-6.2099 l 4.26328,-0.5247 0,-2.8103 c 0,-2.5245 -0.11986,-2.871 -1.17834,-3.4065 -0.64809,-0.3279 -2.79615,-0.5992 -4.77348,-0.6031 -3.74764,-0.01 -5.05857,-0.6274 -4.48509,-2.1219 0.41948,-1.0931 7.93198,-0.9742 10.43691,0.1653 3.18889,1.4507 3.26635,1.6791 3.60024,10.6226 0.16549,4.4327 0.45176,8.624 0.63614,9.3139 0.41706,1.5607 -1.01809,2.6198 -2.26713,1.6732 z m 11.35237,0.083 c -1.45002,-0.8114 -1.7686,-3.7317 -1.77127,-16.2357 -0.003,-12.9745 0.18515,-14.1814 2.14953,-13.8042 0.8688,0.1668 0.92387,0.8152 1.17475,13.8379 -0.1591,1.7009 2.2714,18.1504 -1.55301,16.202 z m 11.31204,0 c -1.44999,-0.8114 -1.76858,-3.7317 -1.77128,-16.2357 -0.003,-12.9745 0.18518,-14.1814 2.14957,-13.8042 0.8688,0.1668 0.92384,0.8152 1.17472,13.8379 -0.15907,1.7009 2.2714,18.1504 -1.55301,16.202 z"
       style="fill:url(#linearGradient4718);fill-opacity:1"
       inkscape:export-xdpi="31.709999"
       inkscape:export-ydpi="31.709999"
       sodipodi:nodetypes="sssssssssscccscssssssscssssssssssssssssssscssssssscsssscssssscsscscsssssssscscssssscsscsssssssscsssssccccssssssscsscssssccccsccccsccc" />
    <text
       xml:space="preserve"
       style="font-style:normal;font-weight:normal;font-size:23.82125092px;line-height:125%;font-family:sans-serif;letter-spacing:0px;word-spacing:0px;fill:#ffffff;fill-opacity:1;stroke:none;stroke-width:1px;stroke-linecap:butt;stroke-linejoin:miter;stroke-opacity:1"
       x="76.149033"
       y="930.97363"
       id="text4825"
       sodipodi:linespacing="125%"><tspan
         sodipodi:role="line"
         id="tspan4827"
         x="76.149033"
         y="930.97363"
         style="font-style:normal;font-variant:normal;font-weight:bold;font-stretch:normal;font-family:'PT Sans Caption';-inkscape-font-specification:'PT Sans Caption Bold'">connecting...</tspan></text>
  </g>
</svg>
